<svg width="20" height="22" viewBox="0 0 20 22" fill="none" xmlns="http://www.w3.org/2000/svg">
<path fill-rule="evenodd" clip-rule="evenodd" d="M9.8918 0C10.4652 0 10.93 0.44772 10.93 1V18.5858L17.4633 12.2929C17.8688 11.9024 18.5262 11.9024 18.9318 12.2929C19.3371 12.6834 19.3371 13.3166 18.9318 13.7071L10.6259 21.7072C10.4312 21.8946 10.1672 22 9.8918 22C9.61645 22 9.35237 21.8946 9.15768 21.7072L0.85195 13.7071C0.446485 13.3166 0.446485 12.6834 0.85195 12.2929C1.25739 11.9024 1.91475 11.9024 2.3202 12.2929L8.85359 18.5858V1C8.85359 0.44772 9.31842 0 9.8918 0Z" fill="black"/>
</svg>
