<svg width="22" height="14" viewBox="0 0 22 14" fill="none" xmlns="http://www.w3.org/2000/svg">
<path fill-rule="evenodd" clip-rule="evenodd" d="M1 0C0.44772 0 0 0.44772 0 1C0 1.55228 0.44772 2 1 2H21C21.5522 2 22 1.55228 22 1C22 0.44772 21.5522 0 21 0H1ZM0 7C0 6.44772 0.44772 6 1 6H21C21.5522 6 22 6.44772 22 7C22 7.55228 21.5522 8 21 8H1C0.44772 8 0 7.55228 0 7ZM0 13C0 12.4478 0.44772 12 1 12H21C21.5522 12 22 12.4478 22 13C22 13.5522 21.5522 14 21 14H1C0.44772 14 0 13.5522 0 13Z" fill="black"/>
</svg>
