<svg width="17" height="18" viewBox="0 0 17 18" fill="none" xmlns="http://www.w3.org/2000/svg">
<path fill-rule="evenodd" clip-rule="evenodd" d="M0.565923 16.7795C0.160478 16.3741 0.148379 15.7288 0.5389 15.3383L12.9739 2.90327L3.90445 2.73329C3.34155 2.72269 2.8767 2.25784 2.8661 1.69494C2.85564 1.13219 3.30335 0.684482 3.86609 0.694947L15.3961 0.911136C15.6663 0.916288 15.9276 1.02849 16.1223 1.2232C16.317 1.4179 16.4292 1.67917 16.4343 1.94934L16.6504 13.4793C16.661 14.0422 16.2133 14.4899 15.6505 14.4793C15.0876 14.4688 14.6228 14.0039 14.6123 13.4411L14.4422 4.37153L2.00716 16.8066C1.61664 17.1971 0.971368 17.185 0.565923 16.7795Z" fill="black"/>
</svg>
